HIERARCHY
ROOT hips
{
  OFFSET 0 10.6860622 2.3727825e-15
  CHANNELS 6 Xposition Yposition Zposition Yrotation Xrotation Zrotation
  JOINT leftUpperLeg
  {
    OFFSET 0.6642549969 -0.9402397400000004 0
    CHANNELS 3 Yrotation Xrotation Zrotation
    JOINT leftLowerLeg
    {
      OFFSET 0 -3.997221335632195 0
      CHANNELS 3 Yrotation Xrotation Zrotation
      JOINT leftFoot
      {
        OFFSET -0.13777839790000004 -4.6145792000000005 -0.22186036399999998
        CHANNELS 3 Yrotation Xrotation Zrotation
        JOINT leftToes
        {
          OFFSET -0.03777410834999995 -0.9130806927000008 0.85230013
          CHANNELS 3 Yrotation Xrotation Zrotation
          End Site
          {
            OFFSET -0.03777410834999995 -0.9130806927000008 0.85230013
          }
        }
      }
    }
  }
  JOINT rightUpperLeg
  {
    OFFSET -0.6642778626 -0.9402397400000004 0
    CHANNELS 3 Yrotation Xrotation Zrotation
    JOINT rightLowerLeg
    {
      OFFSET 0 -3.997221452859387 0
      CHANNELS 3 Yrotation Xrotation Zrotation
      JOINT rightFoot
      {
        OFFSET 0.1377926176 -4.6145792000000005 -0.22185782299999995
        CHANNELS 3 Yrotation Xrotation Zrotation
        JOINT rightToes
        {
          OFFSET 0.037780746850000047 -0.9130806927000008 0.85230167
          CHANNELS 3 Yrotation Xrotation Zrotation
          End Site
          {
            OFFSET 0.037780746850000047 -0.9130806927000008 0.85230167
          }
        }
      }
    }
  }
  JOINT spine
  {
    OFFSET 0 0.13988381660000015 0
    CHANNELS 3 Yrotation Xrotation Zrotation
    JOINT chest
    {
      OFFSET 0 0.6191039003973773 0
      CHANNELS 3 Yrotation Xrotation Zrotation
      JOINT upperChest
      {
        OFFSET 0 0.9855186130586943 0
        CHANNELS 3 Yrotation Xrotation Zrotation
        JOINT leftShoulder
        {
          OFFSET 0.1807663869 1.5087829790000005 0
          CHANNELS 3 Yrotation Xrotation Zrotation
          JOINT leftUpperArm
          {
            OFFSET 0.5985063006419806 0 0
            CHANNELS 3 Yrotation Xrotation Zrotation
            JOINT leftLowerArm
            {
              OFFSET 2.2993332369501065 0 0
              CHANNELS 3 Yrotation Xrotation Zrotation
              JOINT leftHand
              {
                OFFSET 2.395047042602395 0 0
                CHANNELS 3 Yrotation Xrotation Zrotation
                JOINT leftIndexProximal
                {
                  OFFSET 0.5766295810000004 0.04556643899499946 0.17265095988184
                  CHANNELS 3 Yrotation Xrotation Zrotation
                  JOINT leftIndexIntermediate
                  {
                    OFFSET 0.2957229000000008 -0.019352197700001517 -0.007932640616999987
                    CHANNELS 3 Yrotation Xrotation Zrotation
                    JOINT leftIndexDistal
                    {
                      OFFSET 0.19008243099999922 -0.012484908149998475 -0.002786250786000012
                      CHANNELS 3 Yrotation Xrotation Zrotation
                      End Site
                      {
                        OFFSET 0.19008243099999922 -0.012484908149998475 -0.002786250786000012
                      }
                    }
                  }
                }
                JOINT leftMiddleProximal
                {
                  OFFSET 0.5834975091000001 0.0524350405149987 0.02204081888183999
                  CHANNELS 3 Yrotation Xrotation Zrotation
                  JOINT leftMiddleIntermediate
                  {
                    OFFSET 0.33880573540000003 -0.019871473270000717 -0.00000971183179999946
                    CHANNELS 3 Yrotation Xrotation Zrotation
                    JOINT leftMiddleDistal
                    {
                      OFFSET 0.20676022730000088 -0.012221336379999448 0.0001471936708000235
                      CHANNELS 3 Yrotation Xrotation Zrotation
                      End Site
                      {
                        OFFSET 0.20676022730000088 -0.012221336379999448 0.0001471936708000235
                      }
                    }
                  }
                }
                JOINT leftLittleProximal
                {
                  OFFSET 0.5344154683999995 -0.012880921405001189 -0.24414037221816004
                  CHANNELS 3 Yrotation Xrotation Zrotation
                  JOINT leftLittleIntermediate
                  {
                    OFFSET 0.21758961730000093 -0.011650919939999227 0.011893592810000034
                    CHANNELS 3 Yrotation Xrotation Zrotation
                    JOINT leftLittleDistal
                    {
                      OFFSET 0.1475273964999999 -0.008152365682999818 0.006001092492999946
                      CHANNELS 3 Yrotation Xrotation Zrotation
                      End Site
                      {
                        OFFSET 0.1475273964999999 -0.008152365682999818 0.006001092492999946
                      }
                    }
                  }
                }
                JOINT leftRingProximal
                {
                  OFFSET 0.5799399463000003 0.026911854694997794 -0.12150566991816003
                  CHANNELS 3 Yrotation Xrotation Zrotation
                  JOINT leftRingIntermediate
                  {
                    OFFSET 0.26167887460000006 -0.013480186499999602 0.010996293000000053
                    CHANNELS 3 Yrotation Xrotation Zrotation
                    JOINT leftRingDistal
                    {
                      OFFSET 0.17667108799999987 -0.008990287899999228 0.0055541023999999065
                      CHANNELS 3 Yrotation Xrotation Zrotation
                      End Site
                      {
                        OFFSET 0.17667108799999987 -0.008990287899999228 0.0055541023999999065
                      }
                    }
                  }
                }
                JOINT leftThumbProximal
                {
                  OFFSET 0.11018806699999972 -0.09448718900500053 0.17047963138184
                  CHANNELS 3 Yrotation Xrotation Zrotation
                  JOINT leftThumbIntermediate
                  {
                    OFFSET 0.31062601459999983 -0.08126270900000132 0.15443142000000007
                    CHANNELS 3 Yrotation Xrotation Zrotation
                    JOINT leftThumbDistal
                    {
                      OFFSET 0.21627175790000086 -0.08833193599999878 0.018771167799999988
                      CHANNELS 3 Yrotation Xrotation Zrotation
                      End Site
                      {
                        OFFSET 0.21627175790000086 -0.08833193599999878 0.018771167799999988
                      }
                    }
                  }
                }
              }
            }
          }
        }
        JOINT neck
        {
          OFFSET 0 1.5463305265074576 0
          CHANNELS 3 Yrotation Xrotation Zrotation
          JOINT head
          {
            OFFSET 0 0.8456443600000344 0
            CHANNELS 3 Yrotation Xrotation Zrotation
            JOINT leftEye
            {
              OFFSET 0.30408573140000006 0.5104519199999995 0.1276382305
              CHANNELS 3 Yrotation Xrotation Zrotation
              End Site
              {
                OFFSET 0.30408573140000006 0.5104519199999995 0.1276382305
              }
            }
            JOINT rightEye
            {
              OFFSET -0.30409491089999996 0.5104519199999995 0.1276379445
              CHANNELS 3 Yrotation Xrotation Zrotation
              End Site
              {
                OFFSET -0.30409491089999996 0.5104519199999995 0.1276379445
              }
            }
            JOINT jaw
            {
              OFFSET -3.155239131000001e-7 -0.11984121820000082 0.60178107
              CHANNELS 3 Yrotation Xrotation Zrotation
              End Site
              {
                OFFSET -3.155239131000001e-7 -0.11984121820000082 0.60178107
              }
            }
          }
        }
        JOINT rightShoulder
        {
          OFFSET -0.1807303465 1.5087829790000005 0
          CHANNELS 3 Yrotation Xrotation Zrotation
          JOINT rightUpperArm
          {
            OFFSET -0.5985063796536958 0 0
            CHANNELS 3 Yrotation Xrotation Zrotation
            JOINT rightLowerArm
            {
              OFFSET -2.2993322059002854 0 0
              CHANNELS 3 Yrotation Xrotation Zrotation
              JOINT rightHand
              {
                OFFSET -2.395045314457259 0 0
                CHANNELS 3 Yrotation Xrotation Zrotation
                JOINT rightIndexProximal
                {
                  OFFSET -0.5764487688300002 0.0441371204405987 0.17361932004999997
                  CHANNELS 3 Yrotation Xrotation Zrotation
                  JOINT rightIndexIntermediate
                  {
                    OFFSET -0.29573011380000047 -0.01934826376999843 -0.007698921482999974
                    CHANNELS 3 Yrotation Xrotation Zrotation
                    JOINT rightIndexDistal
                    {
                      OFFSET -0.19008373999999884 -0.012503266380000655 -0.0026365778999999897
                      CHANNELS 3 Yrotation Xrotation Zrotation
                      End Site
                      {
                        OFFSET -0.19008373999999884 -0.012503266380000655 -0.0026365778999999897
                      }
                    }
                  }
                }
                JOINT rightMiddleProximal
                {
                  OFFSET -0.5834852037300005 0.05211639405060153 0.02307162440000001
                  CHANNELS 3 Yrotation Xrotation Zrotation
                  JOINT rightMiddleIntermediate
                  {
                    OFFSET -0.33880114510000003 -0.019952774050000954 0.0002455003561999819
                    CHANNELS 3 Yrotation Xrotation Zrotation
                    JOINT rightMiddleDistal
                    {
                      OFFSET -0.20675694929999955 -0.012273788999999091 0.00030209124000002766
                      CHANNELS 3 Yrotation Xrotation Zrotation
                      End Site
                      {
                        OFFSET -0.20675694929999955 -0.012273788999999091 0.00030209124000002766
                      }
                    }
                  }
                }
                JOINT rightLittleProximal
                {
                  OFFSET -0.5346811737299992 -0.011214256288399227 -0.24363941305000003
                  CHANNELS 3 Yrotation Xrotation Zrotation
                  JOINT rightLittleIntermediate
                  {
                    OFFSET -0.21757715980000092 -0.011771559690000988 0.01201554387
                    CHANNELS 3 Yrotation Xrotation Zrotation
                    JOINT rightLittleDistal
                    {
                      OFFSET -0.1475201849000004 -0.00822055339600003 0.006082065407000015
                      CHANNELS 3 Yrotation Xrotation Zrotation
                      End Site
                      {
                        OFFSET -0.1475201849000004 -0.00822055339600003 0.006082065407000015
                      }
                    }
                  }
                }
                JOINT rightRingProximal
                {
                  OFFSET -0.5800810755299999 0.027657985680600072 -0.12066365025000003
                  CHANNELS 3 Yrotation Xrotation Zrotation
                  JOINT rightRingIntermediate
                  {
                    OFFSET -0.26166445029999974 -0.013623118409999302 0.011164098990000045
                    CHANNELS 3 Yrotation Xrotation Zrotation
                    JOINT rightRingDistal
                    {
                      OFFSET -0.17666387530000027 -0.009072900100000503 0.005668185599999959
                      CHANNELS 3 Yrotation Xrotation Zrotation
                      End Site
                      {
                        OFFSET -0.17666387530000027 -0.009072900100000503 0.005668185599999959
                      }
                    }
                  }
                }
                JOINT rightThumbProximal
                {
                  OFFSET -0.10997596379000074 -0.09577489355940072 0.16989765924999997
                  CHANNELS 3 Yrotation Xrotation Zrotation
                  JOINT rightThumbIntermediate
                  {
                    OFFSET -0.31036620999999986 -0.08229339117999834 0.15440884469999996
                    CHANNELS 3 Yrotation Xrotation Zrotation
                    JOINT rightThumbDistal
                    {
                      OFFSET -0.21631306399999906 -0.08825326400000111 0.018656797720000014
                      CHANNELS 3 Yrotation Xrotation Zrotation
                      End Site
                      {
                        OFFSET -0.21631306399999906 -0.08825326400000111 0.018656797720000014
                      }
                    }
                  }
                }
              }
            }
          }
        }
      }
    }
  }
}
MOTION
Frames: 9
Frame Time: 0.03333333333333333
0.2217011414360438 -4.8346597554753235 0.049982424293059366 0 28.993402433365766 0 11.983576226020842 -31.48547672529109 -0.16194742575507715 55.66785944937142 83.6850282036607 57.195048875859094 17.512543419857394 58.768686873480405 0.15861230783133143 0 0 0 -12.110621917183474 -31.55533670837753 0.10469167404391179 -55.31743779268765 83.79862591030691 -56.981363096903344 -17.73568152228322 59.997826290093826 -0.42525054731645595 0 0 0 -0.910227876164742 -19.777039383448983 0.20697380149614178 -2.7282131204757234 32.18015641759689 -3.0757720686322325 0 0 0 -15.011374399824758 -8.340971283865953 -11.56663097606732 -17.406101254705682 -19.623229997953352 -46.96832527138684 -69.42170935250817 -12.976973082036809 -45.17499072228373 -8.70451326934169 10.87367968732672 53.164290667995495 0 0 0 0 0 0 0 0 0 0 0 0 0 0 0 0 0 0 0 0 0 0 0 0 0 0 0 0 0 0 0 0 0 0 0 0 0 0 0 0 0 0 0 0 0 0 -17.47709077807991 0 0 14.93284352679452 0 0 0 0 0 0 0 0 0 0 13.996358862606217 -8.45545800766409 8.917513901025666 16.23844539815528 -18.713458156778678 47.79706760112642 69.41777652863136 -12.973022552268409 45.17212326606443 10.886701398167867 8.870816755033044 -45.67343535303265 0 0 0 0 0 0 0 0 0 0 0 0 0 0 0 0 0 0 0 0 0 0 0 0 0 0 0 0 0 0 0 0 0 0 0 0 0 0 0 0 0 0 0 0 0
0.2217011414360438 -4.8346597554753235 0.029827775071600837 0 28.993402433365766 0 11.996902448595323 -31.690080540915623 -0.1987421882028469 57.13139768135061 83.7876337835785 58.66747873133648 17.512543419857394 58.768686873480405 0.15861230783133143 0 0 0 -12.1229907410723 -31.75978509064765 0.14159123947183216 -56.798472188062924 83.90021000109492 -58.47048400897642 -17.73568152228322 59.997826290093826 -0.42525054731645595 0 0 0 -0.910227876164742 -19.777039383448983 0.20697380149614178 -2.719516670242665 31.88757058919138 -3.0593811280844037 0 0 0 -15.011374399824758 -8.340971283865953 -11.56663097606732 -17.40610298452747 -19.623229997953352 -46.96832527138684 -69.42170935250817 -12.976973082036809 -45.17499072228373 -8.630207185894351 10.554317714632427 53.445948587474135 0 0 0 0 0 0 0 0 0 0 0 0 0 0 0 0 0 0 0 0 0 0 0 0 0 0 0 0 0 0 0 0 0 0 0 0 0 0 0 0 0 0 0 0 0 0 -17.47709077807991 0 0 15.00589555074796 0 0 0 0 0 0 0 0 0 0 14.09892915830322 -8.460257183471848 8.746835972210432 16.367559879198367 -18.833033425423206 47.733265363469776 69.41777652863136 -12.973022552268409 45.17212326606443 10.748877034766181 8.599103683661069 -45.820747736545044 0 0 0 0 0 0 0 0 0 0 0 0 0 0 0 0 0 0 0 0 0 0 0 0 0 0 0 0 0 0 0 0 0 0 0 0 0 0 0 0 0 0 0 0 0
0.2217011414360438 -4.8346597554753235 0.009673394242413617 0 28.993402433365766 0 12.01041090749538 -31.894677882031953 -0.23567323067502227 58.64307729925191 83.88602104187835 60.18804728769594 17.512543419857394 58.768686873480405 0.15861230783133143 0 0 0 -12.1355480964431 -31.964231221653844 0.1786246882266611 -58.32884901189404 83.99759405573737 -60.00894825576952 -17.73568152228322 59.997826290093826 -0.42525054731645595 0 0 0 -0.910227876164742 -19.777039383448983 0.20697380149614178 -2.710945069241436 31.594981201901657 -3.0430933238952527 0 0 0 -15.011374399824758 -8.340971283865953 -11.56663097606732 -17.40610298452747 -19.62323181078758 -46.968327921665555 -69.42170935250817 -12.976973082036809 -45.17499072228373 -8.557578160598245 10.234621636548914 53.72688616261143 0 0 0 0 0 0 0 0 0 0 0 0 0 0 0 0 0 0 0 0 0 0 0 0 0 0 0 0 0 0 0 0 0 0 0 0 0 0 0 0 0 0 0 0 0 0 -17.47709077807991 0 0 15.078944255636523 0 0 0 0 0 0 0 0 0 0 14.20150710875897 -8.46475344397702 8.576146117013126 16.49690273477585 -18.952471802611328 47.66914253709604 69.41777652863136 -12.973022552268409 45.17212326606443 10.611864496997178 8.327054661813937 -45.967291130810786 0 0 0 0 0 0 0 0 0 0 0 0 0 0 0 0 0 0 0 0 0 0 0 0 0 0 0 0 0 0 0 0 0 0 0 0 0 0 0 0 0 0 0 0 0
0.2217011414360438 -4.8346597554753235 -0.010480986586773603 0 28.993402433365766 0 12.024107421953097 -32.09926729173566 -0.272743810512277 60.203335218774356 83.98001682837258 61.757193353398804 17.512543419857394 58.768686873480405 0.15861230783133143 0 0 0 -12.148287123416825 -32.1686655948586 0.2157939311981644 -59.908263310632336 84.09053833714381 -61.59645135272187 -17.73568152228322 59.997826290093826 -0.42525054731645595 0 0 0 -0.910227876164742 -19.777039383448983 0.20697380149614178 -2.7024966009968336 31.302392685662387 -3.0269060547157816 0 0 0 -15.011374399824758 -8.340971283865953 -11.56663097606732 -17.40610298452747 -19.623229997953352 -46.96832527138684 -69.42170935250817 -12.976973082036809 -45.17499072228373 -8.486617481703046 9.914602473574055 54.0071085644041 0 0 0 0 0 0 0 0 0 0 0 0 0 0 0 0 0 0 0 0 0 0 0 0 0 0 0 0 0 0 0 0 0 0 0 0 0 0 0 0 0 0 0 0 0 0 -17.47709077807991 0 0 15.151986218753404 0 0 0 0 0 0 0 0 0 0 14.304098650327576 -8.46894764178313 8.405451236200962 16.626484758442793 -19.07177893478057 47.60469500631794 69.41777652863136 -12.973022552268409 45.17212326606443 10.47565322081207 8.054672896603563 -46.113072695935166 0 0 0 0 0 0 0 0 0 0 0 0 0 0 0 0 0 0 0 0 0 0 0 0 0 0 0 0 0 0 0 0 0 0 0 0 0 0 0 0 0 0 0 0 0
0.2217011414360438 -4.8346597554753235 -0.03063536741596082 0 28.993402433365766 0 12.037989678997311 -32.303847293683724 -0.30995399258127293 61.811646574125085 84.06938033963087 63.374396718845034 17.512543419857394 58.768686873480405 0.15861230783133143 0 0 0 -12.161208950846124 -32.373078611959656 0.2530981398881693 -61.53704244116221 84.1787975407252 -63.233312430096234 -17.73568152228322 59.997826290093826 -0.42525054731645595 0 0 0 -0.910227876164742 -19.777039383448983 0.20697380149614178 -2.6941736908938916 31.009829314282793 -3.0108241356891576 0 0 0 -15.011374399824758 -8.340971283865953 -11.56663097606732 -17.40610298452747 -19.623229997953352 -46.96832527138684 -69.42170935250817 -12.976973082036809 -45.17499072228373 -8.417322389930364 9.594284120801783 54.28662859601304 0 0 0 0 0 0 0 0 0 0 0 0 0 0 0 0 0 0 0 0 0 0 0 0 0 0 0 0 0 0 0 0 0 0 0 0 0 0 0 0 0 0 0 0 0 0 -17.47709077807991 0 0 15.22502155189792 0 0 0 0 0 0 0 0 0 0 14.406708918687876 -8.472840630232737 8.234749878868016 16.7562957088281 -19.19094240084489 47.539913767571285 69.41777652863136 -12.973022552268409 45.17212326606443 10.340236992959237 7.781961537809942 -46.25809478932036 0 0 0 0 0 0 0 0 0 0 0 0 0 0 0 0 0 0 0 0 0 0 0 0 0 0 0 0 0 0 0 0 0 0 0 0 0 0 0 0 0 0 0 0 0
0.2217011414360438 -4.8346597554753235 -0.05078974824514804 0 28.993402433365766 0 12.052057221113305 -32.50839209394543 -0.3473060504116759 63.46788582915038 84.15390015527056 65.03952035124394 17.512543419857394 58.768686873480405 0.15861230783133143 0 0 0 -12.174321693472256 -32.577484897029215 0.29054337961228555 -63.214757168097385 84.26222477073756 -64.91911233973313 -17.73568152228322 59.997826290093826 -0.42525054731645595 0 0 0 -0.910227876164742 -19.777039383448983 0.20697380149614178 -2.685970683817673 30.7172713455498 -2.994838796109354 0 0 0 -15.011376066733021 -8.340971283865953 -11.566631821444844 -17.406101254705682 -19.623229997953352 -46.96832527138684 -69.42170935250817 -12.976973082036809 -45.17499072228373 -8.349685615039686 9.273679934314103 54.56546023895902 0 0 0 0 0 0 0 0 0 0 0 0 0 0 0 0 0 0 0 0 0 0 0 0 0 0 0 0 0 0 0 0 0 0 0 0 0 0 0 0 0 0 0 0 0 0 -17.47709077807991 0 0 15.298050366918796 0 0 0 0 0 0 0 0 0 0 14.509328796545862 -8.476433263402598 8.064046534757765 16.886345371716644 -19.309964214857505 47.47479466508403 69.41777652863136 -12.973022552268409 45.17212326606443 10.20561770786565 7.508936596090556 -46.40236199438716 0 0 0 0 0 0 0 0 0 0 0 0 0 0 0 0 0 0 0 0 0 0 0 0 0 0 0 0 0 0 0 0 0 0 0 0 0 0 0 0 0 0 0 0 0
0.2217011414360438 -4.8346597554753235 -0.07094439746660657 0 28.993402433365766 0 12.066318065472625 -32.71294465696388 -0.3848027743280553 65.17143201359147 84.23339823718192 66.75195280252358 17.512543419857394 58.768686873480405 0.15861230783133143 0 0 0 -12.187621474634835 -32.78188701455834 0.3281268515097662 -64.94041387856839 84.34057262456017 -66.65285358470476 -17.73568152228322 59.997826290093826 -0.42525054731645595 0 0 0 -0.910227876164742 -19.777039383448983 0.20697380149614178 -2.6778870831506487 30.42473093949084 -2.9789501785082906 0 0 0 -15.011376066733021 -8.340971283865953 -11.566631821444844 -17.40610298452747 -19.623229997953352 -46.96832527138684 -69.42170935250817 -12.976973082036809 -45.17499072228373 -8.283697623249731 8.952806614705027 54.8436169930674 0 0 0 0 0 0 0 0 0 0 0 0 0 0 0 0 0 0 0 0 0 0 0 0 0 0 0 0 0 0 0 0 0 0 0 0 0 0 0 0 0 0 0 0 0 0 -17.47709077807991 0 0 14.147638020438734 0 0 0 0 0 0 0 0 0 0 14.611950792298506 -8.47971949041735 7.893338254149799 17.01662658106447 -19.428846393024536 47.409346436814516 69.41777652863136 -12.973022552268409 45.17212326606443 10.071783379220838 7.235599363876065 -46.545883914071965 0 0 0 0 0 0 0 0 0 0 0 0 0 0 0 0 0 0 0 0 0 0 0 0 0 0 0 0 0 0 0 0 0 0 0 0 0 0 0 0 0 0 0 0 0
0.2217011414360438 -4.8346597554753235 -0.0910987782957938 0 28.993402433365766 0 12.080770684555551 -32.91747510641872 -0.4224463736740414 66.92110738902342 84.30763064474749 68.51051318975699 17.512543419857394 58.768686873480405 0.15861230783133143 0 0 0 -12.201109767292849 -32.98625497505248 0.3658512675180565 -66.71295048535059 84.41362825553858 -68.43347442049775 -17.73568152228322 59.997826290093826 -0.42525054731645595 0 0 0 -0.910227876164742 -19.777039383448983 0.20697380149614178 -2.6699217936261133 30.132220089196853 -2.9631600227900456 0 0 0 -15.011376066733021 -8.340971283865953 -11.566631821444844 -17.40610298452747 -19.623229997953352 -46.96832527138684 -69.42170935250817 -12.976973082036809 -45.17499072228373 -8.219356520539227 8.631684196773278 55.12110986866526 0 0 0 0 0 0 0 0 0 0 0 0 0 0 0 0 0 0 0 0 0 0 0 0 0 0 0 0 0 0 0 0 0 0 0 0 0 0 0 0 0 0 0 0 0 0 -17.47709077807991 0 0 12.992081874938105 0 0 0 0 0 0 0 0 0 0 14.714578399319018 -8.48270534594709 7.722627836340396 17.147143195547386 -19.547572833967433 47.343562271579046 69.41777652863136 -12.973022552268409 45.17212326606443 9.93873458555075 6.961963126198412 -46.6886648324972 0 0 0 0 0 0 0 0 0 0 0 0 0 0 0 0 0 0 0 0 0 0 0 0 0 0 0 0 0 0 0 0 0 0 0 0 0 0 0 0 0 0 0 0 0
0.2217011414360438 -4.8346597554753235 -0.11125315912498103 0 28.993402433365766 0 12.095416952936283 -33.12198182677962 -0.46023430256211384 68.71505309944372 84.37635483728523 70.31334339266631 17.512547383842506 58.7686934600412 0.15861495575740164 0 0 0 -12.214792564481266 -33.19061971666056 0.4037205855204594 -68.53026188913334 84.4811467911613 -70.25886761712695 -17.73568152228322 59.997826290093826 -0.42525054731645595 0 0 0 -0.910227876164742 -19.777039383448983 0.20697380149614178 -2.6620751021173548 29.83973094132257 -2.9474642438840144 0 0 0 -15.011376066733021 -8.340971283865953 -11.566631821444844 -17.40610298452747 -19.623229997953352 -46.96832527138684 -69.42170935250817 -12.976973082036809 -45.17499072228373 -8.156655434653603 8.310323098344744 55.39792569185145 0 0 0 0 0 0 0 0 0 0 0 0 0 0 0 0 0 0 0 0 0 0 0 0 0 0 0 0 0 0 0 0 0 0 0 0 0 0 0 0 0 0 0 0 0 0 -17.47709077807991 0 0 11.831582875608538 0 0 0 0 0 0 0 0 0 0 14.817217513758532 -8.485387370105947 7.5519193033093 17.277900936340963 -19.66616727820516 47.2774513419367 69.41777652863136 -12.973022552268409 45.17212326606443 9.80646545764739 6.688032495687953 -46.83069962353853 0 0 0 0 0 0 0 0 0 0 0 0 0 0 0 0 0 0 0 0 0 0 0 0 0 0 0 0 0 0 0 0 0 0 0 0 0 0 0 0 0 0 0 0 0
